<?xml version="1.0" encoding="UTF-8"?>
<svg id="Layer_1" data-name="Layer 1" xmlns="http://www.w3.org/2000/svg" viewBox="0 0 17 12">
    <defs>
        <style>
            .cls-1 {
            fill: #f59e0b;
            stroke-width: 0px;
            }
        </style>
    </defs>
    <path class="cls-1" d="M15.74,0H1.26C.56,0,0,.56,0,1.26v9.48c0,.7.56,1.26,1.26,1.26h14.48c.7,0,1.26-.56,1.26-1.26V1.26c0-.7-.56-1.26-1.26-1.26ZM4.07,9.86c0,.28-.22.5-.5.5h-.85c-.28,0-.5-.22-.5-.5V2.14c0-.28.22-.5.5-.5h.85c.28,0,.5.22.5.5v7.73ZM14.77,9.86c0,.28-.22.5-.5.5h-.79c-.28,0-.5-.22-.5-.5v-5.18h-.07l-2.13,5.32c-.08.19-.26.31-.46.31h-.54c-.2,0-.39-.12-.46-.31l-2.13-5.34h-.07v5.2c0,.28-.22.5-.5.5h-.79c-.28,0-.5-.22-.5-.5V2.14c0-.28.22-.5.5-.5h1.44c.2,0,.39.12.46.31l2.28,5.55h.1l2.28-5.55c.08-.19.26-.31.46-.31h1.44c.28,0,.5.22.5.5v7.73Z"/>
</svg>
